<?xml version="1.0" encoding="UTF-8"?>
<svg id="katman_1" xmlns="http://www.w3.org/2000/svg" version="1.1" viewBox="0 0 317.6 314.9">
  <!-- Generator: Adobe Illustrator 29.3.1, SVG Export Plug-In . SVG Version: 2.1.0 Build 151)  -->
  <defs>
    <style>
      .st0 {
        fill: #fff;
      }

      .st0, .st1, .st2, .st3 {
        fill-rule: evenodd;
      }

      .st1 {
        fill: #273785;
      }

      .st2, .st3 {
        fill: #3737c8;
      }

      .st3 {
        stroke: #273785;
        stroke-miterlimit: 4.5;
        stroke-width: .2px;
      }
    </style>
  </defs>
  <path class="st2" d="M158.7,2.9c85.4,0,155.1,69.7,155.1,155.1s-69.7,155.1-155.1,155.1S3.6,243.4,3.6,158,73.3,2.9,158.7,2.9Z"/>
  <g>
    <path class="st0" d="M119.9,49.4l3.3,4.2,5-1.8-2.9,4.7,3.3,4.2-5.2-1.4-2.9,4.7-.2-5.7-5.2-1.4,5-1.8-.2-5.7Z"/>
    <path class="st0" d="M85.1,69.4l4.6,2.8,4.1-3.4-1.2,5.4,4.6,2.8-5.4.5-1.2,5.4-2.1-5.3-5.4.5,4.1-3.4-2.1-5.3Z"/>
    <path class="st0" d="M59.2,100.2l5.3,1.1,2.7-4.6.7,5.5,5.3,1.1-4.9,2.3.8,5.5-3.8-4.3-4.9,2.3,2.7-4.6-3.8-4.3Z"/>
    <path class="st0" d="M45.6,137.9l5.3-.8,1-5.2,2.6,4.9,5.3-.8-3.8,3.8,2.6,4.9-5.1-2.7-3.8,3.8,1-5.2-5.1-2.7Z"/>
    <path class="st0" d="M45.5,177.9l4.7-2.6-.9-5.2,4.1,3.7,4.7-2.6-2.3,4.9,4.1,3.7-5.7-.8-2.3,4.9-.9-5.2-5.7-.8Z"/>
    <path class="st0" d="M59.1,215.6l3.6-4-2.6-4.6,5.1,2.1,3.6-4-.4,5.4,5.1,2.1-5.6,1.2-.4,5.4-2.6-4.6-5.6,1.2Z"/>
    <path class="st0" d="M119.7,266.5l.2-5.4-5-1.9,5.2-1.7.2-5.4,3.1,4.4,5.2-1.7-3.6,4.5,3.1,4.4-4.9-1.8-3.6,4.5Z"/>
    <path class="st0" d="M159.1,273.4l-1.7-5.1h-5.3c0,0,4.4-3.4,4.4-3.4l-1.7-5.1,4.4,3.1,4.4-3.4-1.8,5.5,4.4,3.1h-5.3s-1.8,5.4-1.8,5.4Z"/>
    <path class="st0" d="M198.6,266.6l-3.3-4.2-5,1.8,2.9-4.7-3.3-4.2,5.2,1.4,2.9-4.7.2,5.7,5.2,1.4-5,1.8.2,5.7Z"/>
    <path class="st0" d="M233.4,246.6l-4.6-2.8-4.1,3.4,1.2-5.4-4.6-2.8,5.4-.5,1.2-5.4,2.1,5.3,5.4-.5-4.1,3.4,2.1,5.3Z"/>
    <path class="st0" d="M259.3,215.9l-5.3-1.1-2.7,4.6-.7-5.5-5.3-1.1,4.9-2.3-.8-5.5,3.8,4.3,4.9-2.3-2.7,4.5,3.8,4.3Z"/>
    <path class="st0" d="M115.3,29.2c3.1,0,5.7,2.6,5.7,5.7s-2.6,5.7-5.7,5.7-5.7-2.6-5.7-5.7,2.6-5.7,5.7-5.7Z"/>
    <path class="st0" d="M84.5,43l11.6,14.9-6.2,1.1-5.5-6.9c-.8,1.6-.9,3.4-.8,5.3h-4.2c-.2-.8-.3-1.6-.2-2.4-7.1-.2-4.9,9.3,5.6,7l.4,3.2c-5.6.2-13.7,1.2-15.2-6.3-.3-3.4,1.2-5.7,4.5-7,1.7-.5,3.3-.5,5.3,0,.4-1.3.8-2.6,1.4-3.8l-1.5-1.9c-7.1,4.8-13.5,9.9-19,15.4,5.2,1.4,7.2,4.4,6,9,3.7.8,6.3.2,9.7-1.1l1.8,2c-3.4,1.9-7.3,3.1-11.5,3.8-3.6.5-6.4,0-8.1-2.1-1.3-2.4,0-4.1,2.6-4.5.3-2.1-.9-3.5-3.5-4.2-1.6,1.7-3.1,3.5-4.6,5.2l-5.3-.8c2-2.4,4.1-4.8,6.2-7.1l-6,.6c-1,0-1.7.4-2.2,1.1l-2.1,3-4.6-1.8,3.2-4.6c.8-1.2,1.9-1.9,3.5-1.7h11.6c7.8-7.8,16.6-14.7,26.5-20.6l4,3c-1.2.7-2.4,1.4-3.5,2.1h0Z"/>
    <path class="st0" d="M27.7,183.9c-.6-2.4-1.1-4.7-1.6-7.1l5.9-1c.7,2.2,1.5,4.4,2.3,6.5-15.7,6.8-2.9,24.3,2.3,14,.7-2.5.7-5.4-1.2-7.5-.2-1,.4-1.3,1.1-1.5,0,.2.1.4.2.5.5,1.3.7,2.9,1.7,3.9,1.1.8,1.8.6,3.1-.2,1.4-1.2,3.7-6.2,2.3-10.3-.6-1.2-1.5-1.7-2.9-1.2l-2,.7-1.7-5.8,4.6-.8,1.9-6-18.6,3.1c-.2-1.3-.4-2.6-.6-3.9l15.5-1.8,2.3-5.9-18.4,1.9c-.3-3.1-.4-6.1-.4-9,2.4-1.3,4.2-1.1,5.5.6-1.6,2.1-1.5,4.2,1.1,5.1,2.7.3,5.1-1.2,7.3-4,2.5-3.4,4.5-6.9,5.8-10.6l-2.6-.2c-1.6,3.2-3.1,5.4-6.3,7.4-2.2-4.2-5.8-5-10.7-2.4.2-8.5,1.3-16.7,3.2-24.6l3,.5-1.8,9.5c-.7,5.6,3.2,7,8.6,4.5,3.3-1.5,5.5-4.2,7.7-6.7l-1.3-2.6c-1.8,1.8-4.5,3.9-7,5.1-2.5.9-3.9-.6-3.7-2.3l1.9-6.8,8.1,1.4,3.9-5-17.9-3.4c.5-1.7,1-3.5,1.6-5.2l14.7,5,4.6-4.4-17.3-6c1-2.7,2.1-5.4,3.3-8,3.7,0,4.7,1.9,3,5.9-.4.7,0,1.2.8,1.5,7.4,1.4,11.3-2.5,10.5-9.8l3.2,1.6,5.1-3.7-16.3-8.2c.6-1.1,1.3-2.2,1.9-3.4l-5.6.2c-4.3,7.4-8,15-10.8,22.7-4.8.8-10.2,1.2-12,6.6-2.8,7.9-2.5,17.1,6.9,10.8-4.3,19.9-3.8,41.1,2.2,63.7l3.8-3.5ZM31,192.7c0-1.4.3-2.6,1-2.6.7,0,1.1,1.1,1.1,2.5s-.2,2.5-.9,2.6c-.7,0-1.1-1-1.2-2.4h0ZM24.8,111.7c-.7,2.2-1.3,4.3-1.9,6.5l-3.5,1.3c-.9.3-1.3-.4-1.1-1.4l.5-3.6c.3-1.2,1.2-2,2.5-2.2l3.5-.7ZM36.9,95.2c.5-1.1,1.1-2.2,1.6-3.3l6.2,3.1c1.2,4.9.3,8.3-2.9,8.2,1.7-4.5,0-7.1-4.9-7.9Z"/>
    <path class="st0" d="M259.4,100.4l-3.6,4,2.6,4.6-5.1-2.1-3.6,4,.4-5.4-5.1-2.1,5.6-1.2.5-5.4,2.6,4.6,5.6-1.2Z"/>
    <path class="st0" d="M233.6,69.5l-2,5,4,3.4-5.5-.2-2,5-1.4-5.2-5.5-.2,4.9-3-1.4-5.2,4,3.4,4.9-3Z"/>
    <path class="st0" d="M159.4,42.6l1.7,5.1h5.3c0,0-4.4,3.4-4.4,3.4l1.7,5.1-4.4-3.1-4.4,3.4,1.8-5.5-4.4-3.1h5.3s1.8-5.4,1.8-5.4Z"/>
    <path class="st0" d="M147.2,38.4l-1.7-23.7,7.3-.5,1.7,23.7-7.3.5Z"/>
    <path class="st0" d="M157.7,37.5l.4-23.8h6.9c0,.1,7.8,13.7,7.8,13.7l-.5-6.3v-7.1c.1,0,6,.1,6,.1l-.4,23.8-6-.2c-.6-1.1-1.5-2.6-2.7-4.6-1.2-2-2.3-3.9-3.3-5.6-.8-1.4-1.7-3.1-2.7-5.3.3,2,.5,3.2.5,3.5l-.2,12h-5.9Z"/>
    <path class="st0" d="M181.1,38.5l5.3-23.1,10.1,2.3c1.5.4,2.9,1,4,1.9,1.2.9,2.1,1.9,2.7,3.1.7,1.2,1.1,2.6,1.3,4.1s.1,3.2-.3,4.8c-.5,2-1.3,3.8-2.5,5.4-1.2,1.6-2.8,2.7-4.8,3.4-2,.7-4.3.7-6.9.1l-9-2.1ZM189.4,34.9c2.1.7,3.8.5,5-.5,1.2-1,2.1-2.4,2.5-4.3.4-1.9.3-3.7-.5-5.2s-2.1-2.4-4.1-2.6l-2.9,12.6Z"/>
    <path class="st0" d="M203.2,44.7l8.5-22.1,6.9,2.6-8.5,22.1-6.9-2.6Z"/>
    <path class="st0" d="M211.4,48l18.1-17.2,6.6,3.7-5,24.4-6.5-3.6,1-4.8-5.5-3.1-3.4,3.4-5.3-2.9ZM227.1,45.4l1.6-6.9-5,5,3.4,1.9Z"/>
    <path class="st0" d="M231.8,60.2l15.3-18.2,5.3,4.4-2.5,15.5,3.6-5.2,4.6-5.5,4.5,3.8-15.3,18.2-4.6-3.9c.2-1.2.5-3,.8-5.3.3-2.3.6-4.4,1-6.4.3-1.5.7-3.5,1.3-5.8-1,1.8-1.6,2.8-1.8,3l-7.7,9.2-4.5-3.8Z"/>
    <path class="st0" d="M275.1,69.6l6.8,10.5c.8,1.2,1.3,2.3,1.6,3.3.3,1.1.4,2.1.2,3-.1.9-.5,1.8-1,2.6-.5.8-1.2,1.5-2.1,2.1-1.1.7-2.4,1.1-3.7,1.2-1.3,0-2.6-.4-3.9-1.3l-6.3,9.3-4.4-6.8,5.7-8-1.2-1.8-7.7,5-4-6.2,19.9-13ZM274.8,78.6l-3.8,2.5,1.9,2.9c.5.7,1,1.1,1.6,1.3.6.1,1.2,0,1.7-.3.5-.3.8-.8,1-1.5.1-.6,0-1.3-.5-2l-1.9-2.9Z"/>
    <path class="st0" d="M267.1,100.3l24.9-2,2.9,7.1-19.3,15.8-2.8-6.9,3.8-3.1-2.4-5.9-4.8.5-2.3-5.6ZM280.9,108.2l5.6-4.3-7,.8,1.4,3.6Z"/>
    <path class="st0" d="M275.5,122.6l23-5.7,1.8,7.1-23,5.7-1.8-7.1Z"/>
    <path class="st0" d="M277.8,133.2l23.5-3.3,1,7.3-17.7,2.5,1.3,9.2-5.7.8-2.3-16.5Z"/>
    <path class="st0" d="M280.2,153.6l24.1-4.6-.5,6.7-14.1,2.4,13.6,4.2-.4,5.7-14,2.5,13.5,4.3-.4,5.6-23.2-8,.4-6,13.4-2.4-13-4,.4-6.4Z"/>
    <path class="st0" d="M278.3,175.7l21.1,13.4-2,7.3-24.9,1,1.9-7.2,4.9-.2,1.6-6.1-4.2-2.5,1.6-5.8ZM284.6,190.3h7.1c0,0-6.1-3.7-6.1-3.7l-1,3.7Z"/>
    <path class="st0" d="M270.7,200.4l9.1,4.1,15.8-1.7-3.2,7.3-8.7.7,5.4,6.8-2.6,5.8-9.5-12.3-9.2-4,2.9-6.5Z"/>
    <path class="st0" d="M270.1,217.4l-2.7,6.2c-.9-.3-1.8-.3-2.7.1-.9.4-1.6,1-2.2,1.8-.5.7-.7,1.4-.8,2,0,.6,0,1,.4,1.3.7.4,2.1-.3,4.2-2.2,2.1-1.9,4-3.1,5.8-3.8,1.8-.7,3.8,0,6,1.8,1,.8,1.7,1.9,2,3.3.3,1.4.3,2.8-.1,4.3-.4,1.5-1,3-1.9,4.3-1.2,1.7-2.7,3-4.5,3.9-1.8.9-3.7,1-5.8.6l1.9-6c.8.2,1.5.2,2.3-.1.7-.3,1.3-.9,1.8-1.6.4-.6.7-1.2.7-1.8,0-.6,0-1-.3-1.2-.5-.5-1.3-.3-2.3.6-1,.9-2.2,1.9-3.6,3.2-1.4,1.3-2.9,2.1-4.4,2.4-1.6.4-3.3,0-5.2-1.3-1.4-.9-2.3-2.2-2.7-3.6-.4-1.5-.4-3.1,0-4.8.4-1.7,1.2-3.3,2.2-4.8,1.5-2.2,3.4-3.8,5.6-4.7,2.2-1,4.4-.9,6.5,0h0Z"/>
    <path class="st0" d="M273,178.1l-5.3.8-1,5.2-2.6-4.9-5.3.8,3.8-3.8-2.6-4.9,5.1,2.7,3.8-3.8-1,5.2,5.1,2.7Z"/>
    <path class="st0" d="M273,138.1l-4.7,2.6.9,5.2-4.1-3.7-4.7,2.6,2.3-4.9-4.1-3.7,5.7.8,2.3-4.9.9,5.2,5.7.8Z"/>
    <path class="st0" d="M198.8,49.5l-.2,5.4,4.9,1.9-5.2,1.7-.2,5.4-3.1-4.4-5.2,1.7,3.5-4.5-3.1-4.4,4.9,1.8,3.6-4.5Z"/>
    <path class="st0" d="M159.3,59.7c54.1,0,98.3,44.1,98.3,98.3s-44.1,98.3-98.3,98.3-98.3-44.1-98.3-98.3,44.1-98.3,98.3-98.3Z"/>
  </g>
  <path class="st1" d="M159.3,70.2c48.3,0,87.8,39.4,87.8,87.8s-39.4,87.8-87.8,87.8-87.8-39.4-87.8-87.8,39.4-87.8,87.8-87.8Z"/>
  <path class="st2" d="M159.3,66.4c50.4,0,91.6,41.1,91.6,91.6s-41.1,91.6-91.6,91.6-91.6-41.1-91.6-91.6,41.1-91.6,91.6-91.6h0Z"/>
  <path class="st0" d="M92.4,101.2h133.7c3.6,4.3,6.8,8.9,9.6,13.8H82.8c2.8-4.9,6-9.5,9.6-13.8h0Z"/>
  <path class="st0" d="M111.2,84.6h96.2c6,3.9,11.4,8.6,16.3,13.8H94.9c4.8-5.2,10.3-9.9,16.3-13.8Z"/>
  <path class="st0" d="M81.2,117.8h156c2.3,4.4,4.2,9,5.7,13.8H75.6c1.5-4.8,3.4-9.4,5.7-13.8h0Z"/>
  <path class="st0" d="M74.7,134.4h169.1c1.2,4.5,2.1,9.1,2.7,13.8H72c.5-4.7,1.4-9.3,2.7-13.8Z"/>
  <path class="st0" d="M71.8,151.1h175c.2,2.3.3,4.6.3,6.9s0,4.6-.3,6.9H71.8c-.2-2.3-.3-4.6-.3-6.9s0-4.6.3-6.9h0Z"/>
  <path class="st0" d="M72,167.7h174.4c-.5,4.7-1.4,9.3-2.7,13.8H74.7c-1.2-4.5-2.1-9.1-2.7-13.8h0Z"/>
  <path class="st0" d="M75.6,184.3h167.4c-1.5,4.8-3.4,9.4-5.7,13.8H81.2c-2.3-4.4-4.2-9-5.7-13.8Z"/>
  <path class="st0" d="M82.8,200.9h153c-2.8,4.9-6,9.5-9.6,13.8H92.4c-3.6-4.3-6.8-8.9-9.6-13.8h0Z"/>
  <path class="st0" d="M94.9,217.5h128.7c-4.8,5.2-10.3,9.8-16.3,13.8h-96.2c-6-3.9-11.4-8.6-16.3-13.8Z"/>
  <path class="st0" d="M203.4,82.2h-88.4c13-7.6,28.1-12,44.2-12s31.2,4.4,44.2,12h0Z"/>
  <path class="st0" d="M115.1,233.7h88.4c-13,7.6-28.1,12-44.2,12s-31.2-4.4-44.2-12h0Z"/>
  <path class="st2" d="M152.2,116.2l-35.3,15.6-.5,102.7,42,26.7h6.5s41.1-29.3,41.1-29.3v-64.6s-53.8-51.1-53.8-51.1Z"/>
  <path class="st0" d="M205,169.9c0,12.7-.1,22.6-.2,35.3-7.7,0-16.4,0-25.3,0h-35.8c-9.2,0-18.2,0-26.1,0,0-12.3-.1-22-.2-34.1,0-.4-.1-1.6,0-1.2,3.6,14.7,13.2,25,25.9,31.1v-2.4h41.2c9.9-6.3,17.6-16.1,20.5-28.6h0Z"/>
  <path class="st2" d="M69.4,141.7c11.7-13.9,111.5-111.2,101.3-35.4-5.3-3-11.5-2.9-16.6-.2-.3-6.7-3.9-10.7-19.6-5.2-25.5,11.3-46.1,29.3-65.7,48.7.2-2.6.3-5.3.5-7.9h0Z"/>
  <path class="st2" d="M150.4,107.5c3.5,2.6,2.4,5.4.7,7.6,7.5.1,15.3.2,22.9.3-2.6-2.3-2-5.4.4-7.8-8.1-6.8-15.6-7.2-24,0Z"/>
  <path class="st2" d="M161.8,114.2c25,0,45.4,20.4,45.4,45.4s-20.4,45.4-45.4,45.4-45.4-20.4-45.4-45.4,20.4-45.4,45.4-45.4Z"/>
  <path class="st0" d="M161.8,115.2c24.5,0,44.4,20,44.4,44.4s-20,44.4-44.4,44.4-44.4-20-44.4-44.4,15.3-39.4,35.5-43.5c2.9-.6,5.9-.9,8.9-.9Z"/>
  <path class="st2" d="M162,116.9c23.4,0,42.4,19.1,42.4,42.4s-2.1,15.1-5.8,21.4l-21.2-10.8h-30.8l-21.2,10.8c-3.7-6.3-5.8-13.6-5.8-21.4,0-23.4,19.1-42.4,42.4-42.4Z"/>
  <path class="st0" d="M117.4,206.9h87.7v9.8h-87.7v-9.8Z"/>
  <path class="st0" d="M117.5,216.9h87.6v15l-15.9,9.1-1.5.9-26.3,15.1h-.2c0,0-43.8-25.1-43.8-25.1v-15Z"/>
  <path class="st0" d="M154.7,107.7c5.4-1.8,10.5-2,15.7,0,.5.2,1.1.3,1.1.8v1c0,.4-.6,1-1.1.8-5.4-2.4-10.3-2.3-15.7,0-.5.2-1.1-.3-1.1-.8v-1c0-.4.6-.6,1.1-.8Z"/>
  <path class="st0" d="M118.2,133.6c3-1.4,6-2.7,9.1-4.1-4.5,5.2-7,11.3-9.2,15.9,0-3.5.2-8.1.2-11.8h0Z"/>
  <path class="st0" d="M128.9,165.2c1.3-.2,2.4,0,2.6.6.3.6-.2,1.3-1.2,2,.9,1.4,1.9,2.8,3,4.2.4,2.1-.4,2.8-2.4,2.6-1.3-1.8-2.5-3.6-3.4-5.4-1.6.4-2.9.2-3.2-.4-.3-.7.5-1.7,1.8-2.5-3.6-8.5-3.3-17.1,2.6-25.5-1.2-1-1.8-2-1.4-2.7.4-.7,1.9-.6,3.4,0,1.5-1.7,3.2-3.5,5.2-5.2,1.7-1.1,3.3.2,2.1,1.6-1.9,1.7-3.6,3.4-5.1,5.1.9.9,1.3,1.8,1,2.3-.4.6-1.6.6-2.9.1-5.6,7.7-6.3,15.3-2.2,23.2h0Z"/>
  <path class="st0" d="M195,165.2c-1.3-.2-2.4,0-2.6.6-.3.6.2,1.3,1.2,2-.9,1.4-1.9,2.8-3,4.2-.4,2.1.4,2.8,2.4,2.6,1.3-1.8,2.5-3.6,3.4-5.4,1.6.4,2.9.2,3.2-.4.3-.7-.5-1.7-1.8-2.5,3.6-8.5,3.3-17.1-2.6-25.5,1.2-1,1.8-2,1.4-2.7-.4-.7-1.9-.6-3.4,0-1.5-1.7-3.2-3.5-5.2-5.2-1.7-1.1-3.3.2-2.1,1.6,1.9,1.7,3.6,3.4,5.1,5.1-.9.9-1.3,1.8-1,2.3.4.6,1.6.6,2.9.1,5.6,7.7,6.3,15.3,2.2,23.2h0Z"/>
  <path class="st0" d="M162,134.2c13.9,0,25.2,11.3,25.2,25.2s-11.3,25.2-25.2,25.2-25.2-11.3-25.2-25.2,11.3-25.2,25.2-25.2Z"/>
  <path class="st0" d="M73.2,139.1c11.6-11.6,105.1-102.2,96.2-34.2-6.3-.7-9.8-.8-14,0,.2-6.2-6.5-10.9-20.5-5.3-24.5,10.3-42.8,26-61.7,43.6,0-2.4,0-1.7,0-4.1h0Z"/>
  <path class="st0" d="M162.3,110.7c5.3,0,9.6,4.4,9.6,9.7s-4.3,9.7-9.6,9.7-9.6-4.4-9.6-9.7,4.3-9.7,9.6-9.7Z"/>
  <path class="st0" d="M158.6,128c2.4,2.6,4.2,3.2,7.5,0l.7,7.8c-3.3-1.4-5.8-1.4-8.8-.3l.7-7.6Z"/>
  <path class="st2" d="M159.1,130.5c2.2,1.4,3.7,1.9,6.5-.2l.5,4.4c-2.8-.9-4.9-.9-7.6-.2l.5-4Z"/>
  <path class="st2" d="M162.3,112.4c4.4,0,8,3.6,8,8s-3.6,8-8,8-8-3.6-8-8,3.6-8,8-8Z"/>
  <path class="st0" d="M156.8,114.6v11.6c-.4-.4-.8-.9-1.2-1.4v-8.8c.3-.5.7-1,1.2-1.4Z"/>
  <path class="st0" d="M159.9,112.8v15.2c-.4-.1-.8-.3-1.2-.5v-14.2c.4-.2.8-.4,1.2-.5h0Z"/>
  <path class="st0" d="M162.9,112.4v16c-.2,0-.4,0-.6,0s-.4,0-.6,0v-16c.2,0,.4,0,.6,0s.4,0,.6,0h0Z"/>
  <path class="st0" d="M166,113.3v14.2c-.4.2-.8.4-1.2.5v-15.2c.4.1.8.3,1.2.5h0Z"/>
  <path class="st0" d="M169,116v8.8c-.3.5-.7,1-1.2,1.4v-11.6c.4.4.8.9,1.2,1.4Z"/>
  <path class="st2" d="M117.3,193h2.4c0,0,.1-3.4.1-3.4h7.7s.5.6.5.6v2.5c.1,0,3.1.1,3.1.1l-1.5-1.3,2.7,2.3v10.4s-15.1-.1-15.1-.1v-11Z"/>
  <path class="st2" d="M205.7,193h-2.6c0,0,0-3.4,0-3.4h-7.2s-.5.6-.5.6v2.5c-.1,0-3,.1-3,.1l1.5-1.3-2.6,2.3v10.4s14.5-.1,14.5-.1v-11Z"/>
  <path class="st2" d="M116.9,212.9h89.2v1.5h-89.2v-1.5Z"/>
  <path class="st2" d="M116.8,205.3h89.3v1.7h-89.3v-1.7Z"/>
  <path class="st1" d="M116.7,216.3h89v.9h-89v-.9Z"/>
  <path class="st2" d="M135.7,202.1c4,0,7.3,3.3,7.3,7.3s-3.3,7.3-7.3,7.3-7.3-3.3-7.3-7.3,3.3-7.3,7.3-7.3Z"/>
  <path class="st2" d="M187.2,202.1c4,0,7.3,3.3,7.3,7.3s-3.3,7.3-7.3,7.3-7.3-3.3-7.3-7.3,3.3-7.3,7.3-7.3Z"/>
  <path class="st2" d="M157.4,209v-1.4h6.6v1.4h-6.6Z"/>
  <path class="st2" d="M156.2,207.7h1.4v3.8h-1.4v-3.8Z"/>
  <path class="st2" d="M153.7,207.4h1.4v5.5h-1.4v-5.5Z"/>
  <path class="st2" d="M163.9,207.7h1.4v5.3h-1.4v-5.3Z"/>
  <path class="st2" d="M167.5,206.4h1.4v6.6h-1.4v-6.6Z"/>
  <path class="st0" d="M135.7,203.4c3.3,0,6,2.7,6,6s-2.7,6-6,6-6-2.7-6-6,2.7-6,6-6Z"/>
  <path class="st0" d="M187.2,203.4c3.3,0,6,2.7,6,6s-2.7,6-6,6-6-2.7-6-6,2.7-6,6-6Z"/>
  <path class="st0" d="M125,194.5c1.8,0,3.3,1.6,3.3,3.6s-1.5,3.6-3.3,3.6-3.3-1.6-3.3-3.6,1.5-3.6,3.3-3.6Z"/>
  <path class="st0" d="M198.8,194.5c-1.8,0-3.3,1.6-3.3,3.6s1.5,3.6,3.3,3.6,3.3-1.6,3.3-3.6-1.5-3.6-3.3-3.6Z"/>
  <path class="st2" d="M117.1,132.4l-.3,97.6-55,19.1,19.5-35.5-2.8-4.2,12-19.7.8-4.4,7.5-13.1,3-17.5,15.4-22.4Z"/>
  <path class="st2" d="M116.8,229.5v15.7c0,0-55.2,4.1-55.2,4.1l2.1-1.2,53.1-18.6Z"/>
  <path class="st2" d="M61.7,249.3c0,.7,0,1.8,0,2.5,2.4.4,4.8,1.5,7.2,1.9,1.8,1.5,3.6,1.9,5.2-.5,2.8,5.1,5.5,4.7,8.5-.8,2.9,6.8,7.9,6.2,8.9-.9,0-.1-.1-.1,0-.3,2,11.2,10.3,10.6,13.1-1.6,3,13.5,13,6.6,12.4-4.6-18,1.8-37.2,2.5-55.2,4.3h0Z"/>
  <path class="st0" d="M116.7,136.5l-.7,92.5-51.8,17.9,18.9-33.6-2.7-4.3,11.9-19.5.3-3.4,7.6-13.1,3.1-17.2,13.2-19.2Z"/>
  <path class="st0" d="M116.1,237.1v7.4s-52.7,4-52.7,4l52.7-11.4Z"/>
  <path class="st0" d="M116.1,230.8v4.3s-50.1,12.6-50.1,12.6l50.1-16.9Z"/>
  <path class="st0" d="M62.5,250.2c0,.7-.1,1-.2,1.7,2.3.4,4.7,1.4,7,1.8,1.8,1.4,3.5,1.7,5-.5,2.7,4.7,5.4,4.4,8.2-.7,2.8,6.3,7.7,5.8,8.7-.9,0-.1-.1-.1,0-.2,2,10.5,10,9.9,12.7-1.5,2.9,12.6,12.6,6.5,12.1-3.9-17.5,1.7-36,2.6-53.5,4.2h0Z"/>
  <path class="st2" d="M96.8,188.5l9.1-10.4v20l-9.1,6.5v-16.1Z"/>
  <path class="st2" d="M84.8,225.7l4.7-3.7v8c0,0-4.7,2.9-4.7,2.9v-7.1Z"/>
  <path class="st2" d="M78.7,231l3.8-3v6.4c0,0-3.7,2.3-3.7,2.3v-5.7Z"/>
  <path class="st2" d="M74.1,235.6l2.6-2.1v4.5s-2.6,1.6-2.6,1.6v-4Z"/>
  <path class="st2" d="M70.2,239.6l1.7-1.3v2.9s-1.7,1-1.7,1v-2.6Z"/>
  <path class="st2" d="M67,242.4l1-.8v1.7s-1,.6-1,.6v-1.5Z"/>
  <path class="st0" d="M133.7,219.8h-3.6s0,3.6,0,3.6l3.6-3.6Z"/>
  <path class="st2" d="M118.7,218.8h4.5v4.5h-4.5v-4.5Z"/>
  <path class="st2" d="M140.9,218.8h4.5v4.5h-4.5v-4.5Z"/>
  <path class="st2" d="M163,218.8h4.5v4.5h-4.5v-4.5Z"/>
  <path class="st2" d="M184.6,218.8h4.5v4.5h-4.5v-4.5Z"/>
  <path class="st2" d="M129,228.2h4.5v4.5h-4.5v-4.5Z"/>
  <path class="st2" d="M174.2,228.2h4.5v4.5h-4.5v-4.5Z"/>
  <path class="st2" d="M196.8,228.2h4.5v4.5h-4.5v-4.5Z"/>
  <path class="st2" d="M140.9,237.3h4.5v4.5h-4.5v-4.5Z"/>
  <path class="st2" d="M163,237.3h4.5v4.5h-4.5v-4.5Z"/>
  <path class="st2" d="M173.6,246.8h4.5v2.2l-4.5,2.6v-4.8Z"/>
  <path class="st2" d="M151.6,228.2h4.5v4.5h-4.5v-4.5Z"/>
  <path class="st2" d="M151.9,246.8h4.5v4.5h-4.5v-4.5Z"/>
  <path class="st2" d="M184.6,237.3h4.5v3.7l-1.5.8h-3v-4.5Z"/>
  <path class="st2" d="M136.2,218.8h-7.3s0,7.3,0,7.3l7.3-7.3ZM133.7,219.9h-3.6s0,3.6,0,3.6l3.6-3.6Z"/>
  <path class="st2" d="M158.9,218.8h-7.3s0,7.3,0,7.3l7.3-7.3ZM156.3,219.9h-3.6s0,3.6,0,3.6l3.6-3.6Z"/>
  <path class="st2" d="M181.5,218.8h-7.3s0,7.3,0,7.3l7.3-7.3ZM178.9,219.9h-3.6s0,3.6,0,3.6l3.6-3.6Z"/>
  <path class="st2" d="M204.1,218.8h-7.3s0,7.3,0,7.3l7.3-7.3ZM201.5,219.9h-3.6s0,3.6,0,3.6l3.6-3.6Z"/>
  <path class="st2" d="M126.1,228.2h-7.3s0,7.3,0,7.3l7.3-7.3ZM123.5,229.4h-3.6s0,3.6,0,3.6l3.6-3.6Z"/>
  <path class="st2" d="M148.1,228.2h-7.3s0,7.3,0,7.3l7.3-7.3ZM145.6,229.4h-3.6s0,3.6,0,3.6l3.6-3.6Z"/>
  <path class="st2" d="M170.3,228.2h-7.3s0,7.3,0,7.3l7.3-7.3ZM167.7,229.4h-3.6s0,3.6,0,3.6l3.6-3.6Z"/>
  <path class="st2" d="M191.9,228.2h-7.3s0,7.3,0,7.3l7.3-7.3ZM189.3,229.4h-3.6s0,3.6,0,3.6l3.6-3.6Z"/>
  <path class="st2" d="M136.2,237.3h-7.3s0,1.3,0,1.3l1.1.6,1.9,1.2.9.6,3.3-3.8ZM133.7,238.6h-3.6s0,.6,0,.6l2,1.2,1.6-1.8Z"/>
  <path class="st2" d="M158.8,237.3h-7.3s0,7.3,0,7.3l7.3-7.3ZM156.2,238.5h-3.6s0,3.6,0,3.6l3.6-3.6Z"/>
  <path class="st2" d="M181.3,237.3h-7.3s0,7.3,0,7.3l7.3-7.3ZM178.7,238.5h-3.6s0,3.6,0,3.6l3.6-3.6Z"/>
  <path class="st2" d="M148.1,246.8h-7.3s0,3.2,0,3.2l2.5,1.6,4.7-4.8ZM145.6,248h-3.6s0,2.7,0,2.7l.6.3,3.1-3Z"/>
  <path class="st2" d="M170.3,247h-7.3s0,7.3,0,7.3l7.3-7.3ZM167.7,248.1h-3.6s0,3.6,0,3.6l3.6-3.6Z"/>
  <path class="st3" d="M132,179.3c-.3,0-.5.5-.3,1,1.1.8,2.5,1.8,3.8,3,1.1,2.5-.5,3.8-2.2,1.5-.9-.1-1.2.9-.2,1.7,0,1.2.2,2.7.8,4s1.4,2.4,2.7,2.8c.5-.4.4-.4-.1-1.1-1.6-.9-2.3-3-2.1-4.6.6-.2,4.5,2.1,4.7,2.5.1,1.4,0,2.9.2,4.3.2.3.5.4.8,0,0-.9-.1-3,0-4.8,0-1.8.3-3.2,1-2.8,2.2,1.1,4.3,2.3,6.4,3.2,1.3,1.2.6,2.8-1.1,2.1-3.9-4.4-5.7,0-3.1,4.2.5.1.7-.1.6-.8-2-3.7-.4-5.4,1.8-3-.8,3.5,3.3,7.2,5.1,3.9,0,.8,0,2.5.1,3.3.3.2.7.3.9,0v-8c1,0,2,0,3,.5.1,1,.2,2,0,2.9-1.8.3-.2,4.7,1.2,1.8.8,0,1.7,0,2.5,0v3.9c.3.2.5.2.7,0,0-1.4,0-2.8,0-4.2,0-1.4,0-2.8,0-4.2,1.8,0,3.5-.2,5.2,0,0,.2.2.3.3.5.1,1.1,0,2.6,0,3.7-.9,2.4-3.4,1.3-3.1-.3-.4-2.9,2.6-.7,2.1-2.8-2.2-.6-3.2,1.3-2.9,3.3.4,1.7,1.4,2.6,3.8,1.8,0,.6,0,1.4,0,2,.2.3.5.3.8,0,0-1.4,0-2.8,0-4.2,0-1.4,0-2.8,0-4.2.6-.3,1.1-.3,1.3-.4.2-.1.1-.4,0-.9-2.5.6-5.1.6-7.6.4-.8-1.5-1.6-2.8-2.7-4.1-.4,0-.5,0-.6.4.9,1.4,1.7,2.4,2.1,3.6-4.5-.1-8.8-1.4-12.6-3.2-2.4-1.2-4.8-2.5-7.1-4-2.3-1.5-4.5-3.2-6.6-5.1h0ZM137,184.8c.7,0,2.1,1,2.1,1.9s.2,1.9-.7,1.9c-.8,0-2-.8-2-1.7,0-.9-.2-2.1.6-2.1h0ZM149,191.2c.7,0,1.3.2,1.9.6,0,1.3,0,3.1-.4,3.7-1.4,2.4-4.3.3-3.6-1.6,1.3.4,2.2-.4,2.1-2.6ZM158.3,193.7c0,.6.1,2-.3,2.1-.5.1-1.1,0-1.6,0-.3,0-.7,0-.7-.4,0-1.7-.2-2.8.5-2.8.9,0,2.1.2,2.1,1Z"/>
  <path class="st3" d="M169.4,190.7c-.2.4,0,.7.2.9,1.2-.2,2.3-.5,3.4-.9.5.5.6,1.1.3,1.6-1,.8-2.1,1.1-3.2,1.2-.5.3-.3.7-.1.9,1.9,0,1.3,3.5-.2,3.3-1.1-.2-1.7-.8-2.3-1.7-.3,0-.5.2-.3.7.5,1.4,1.7,2,2.7,2.1,2.1-.3,2.2-1.8,2.1-4.3.6-.8,1.2-.8,1.7,0,0,1.4.1,2.7.2,4.1.3.5.5.3.8,0,0-1.4,0-2.7-.1-4,0-1.3,0-2.7-.1-4,1.1-.5,2.4-1.1,3.6-1.6,1.4-.1,1,2.2-.9,2.9-1.2.4.3,6.2,4.6,1.1,0,.7,0,1.4,0,2,.3.3.6.3.8,0,0-1.4,0-2.8,0-4.2s0-2.8,0-4.2c2-1.6,4.2-3.1,6.2-5.1.2.4.2,1.8,0,2.3-2.3.6-3.8,2.2-4.5,4.3-1,3.1,2.2,6.2,1.9,3.4-1.2-.6-1.2-2.5-.5-4.1.7-1.6,1.9-2.8,3.2-1.9,0,1.4,0,2.6,0,4.1.2.4.8.2.8-.2,0-1.4,0-2.8,0-4.2s0-2.8,0-4.2c0-.2-.1-.3,0-.4.2-.4.6-.6,1.1-1.2,0-.2,0-.7-.3-.8-.2.2-.8.8-1,1-.8-.3-1.5-1.3-2.3-1.9-.6,0-.7.4-.7.8.6.6,1.6,1.6,2.2,2.1-2.5,2.6-5.6,4.8-8.9,6.6-3.3,1.7-6.8,2.9-10.3,3.7h0ZM179.5,188.3c.9-.7,1.4-1.1,1.7-1,.6.3.6,3,.3,4-.6,1.7-3.5,3.5-3.2.9.9-.6,2.1-1.2,1.2-3.9h0Z"/>
  <path class="st2" d="M161.2,137.8c.9.5,1.3,0,1.7,0,.9,0,1.7,0,2.2.5.4.5.4.9.9,1.4,0,.5-.4,1.4.4,1.8q0,.5.4.9c.4-.5,1.7-.5,2.2-1.4.4-.5.9-.5,1.7,0,.4,0,.9.5,1.3.9,0,.5,0,.9.4.9.9,0,1.7,0,1.7.9-.4,1.4,2.2,2.3.9,3.6-.9.5-1.3,1.4-1.7,1.8-.9,0-.4,1.4-1.3.9-.4,0-.4-1.4-.9-.9,0,.5.4.9.4,1.4.4.5,0,1.4.4,1.8-.4.5.9,1.4,0,2.3.4.9-.9,1.4-.4,2.3-.9.5-.4.9-.9,1.4-.4.9-.9.9-.9,1.8-.4.5,0,1.4,0,1.8,0,1.8-1.3,3.2,0,5,0,.5,0,.9.4,1.4.4,0,1.3-.5,1.7.5,0,.5.9.9.4,1.4-.4.9.4.9.4,1.4,1.3.5.4,1.8,1.7,2.7.4.9-1.3.9-.9,2.3,0,.5-.4.9-.4,1.4-.9.9-1.3,1.4-2.2,1.4-.4.5,0,.9-.4,1.4-.9.5-1.7.5-2.6.5h-13.1c-.4.5-.4-.5-.9-.5s0-.9-.4-1.4h-1.7c-.9-.9-1.3-2.3-1.3-3.2q-.4-.5-.4-.9c0-.5.4-.5.4-.9,0-.9,0-1.8.4-2.3s.4-.9.9-.9v-1.4c.4-.5.4-1.8,1.7-1.4-.4-.5.4-.5.4-.5,0-1.4.9-2.7,0-4.1,0-1.4-.4-2.7,0-3.6q-.4-.5-.9-.9c.4-.5-.9-.9-.4-1.4-.9-.5-.9-1.4-1.3-2.3-.4-.5,0-1.8-.4-2.3.4-.5,0-1.4.9-1.8-.4-.9.4-.9.4-1.8h-.4s0,.9-.4.9c-.9,0-.9-.9-1.3-.9-.4-.5-.4-1.4-1.3-1.4,0-.9-.9-.9-.4-1.8,0-.9.9-1.4.9-2.3.4-.9,1.7-.9,2.2-2.3.4-.9,1.3-.5,1.7-.9.9-.5,1.3,1.4,2.6.9h.9c0-.5.4-.5.4-.9,0-.9-.4-1.4,0-2.3.4-.5,1.3,0,1.3-.5.4.5.9-.5,1.3,0,.4-.5.9,0,1.3-.5h0ZM162.1,138.2c.4.5.4.9,0,1.4.9.5,2.2.5,2.6,1.4,0,.9.9,1.4,0,1.8-.4,0,0,.9-.4.5-.4,0-.4-.5-.4-.5l.9-.9c-.4,0-.9,0-.9.5-.4,0-.4-.5-.9-.5q.4-.5.9-.5s.4.5.4,0c-.4,0-.4-.9-.9-.5-.4.5-.4.9-.9.9,0-.5.4-.9.4-.9.9-.5.9,0,1.3.5.4-.5-.4-.9-.4-.9-.9-.5-1.3.5-1.7.9-.4.5.4.9,0,1.4h-.9c0-.5.4-.9,0-1.4,0-.5-.4-.9-.9-.9-.9,0-1.3.5-1.3.9l.4-.5c.4-.5.9,0,.9,0,0,.5.4.5.4.9-.4-.5-.9-1.4-1.3-.9,0,.5-.9.5-.4.9.4,0,.4-.5.9-.5l.4.5c0,.5-.9.5-.9.5q-.4-.5-.9-.5c.4.5.9.5,1.3.9-.4,0-.4.5-.9.9,0,.5,0,.9.4,1.4h.4c0-.5-.4,0-.4-.5.4.5,1.3,0,1.7-.5s-.4.5-.9,0c0,.5-.4.5-.4,0-.4,0-.9,0-.4-.5,0,.5.9.5,1.3.5-.4,0-.9-.5-1.3-.9h.4c0,.5.4.9.9.5,0,0,0,.5.4,0-.4,0-.9,0-1.3-.5,0-.5.4-.5.4-.5q0,.5.4.9c.4,0,.9.5,1.3,0h.4-.4c.4.5.9.5,1.3.5s.4-.5.9-.5c0,.5-.4.5-.4.5-.9.5-1.3,0-1.7-.5v.5c0,.5.4.5.9.5s1.3,0,1.3-.5c0,0,0-.5.4-.5v.9c-.4.5,0,.9-.4,1.4,0-.5,0,0-.4,0l.4-.5c0-.5.4-.9.4-1.4-.4.5-.9.9-1.3.9-.9,0-1.3-.5-1.7-.9-.4.5-1.3,1.4-2.2.9,0,0-.4-.5-.9-.5.4,0,0,.9.4,1.4.4,0,.9,0,.9.5v.5c-.4,0-.4-.9-1.3-.9,0-.5.4-.9,0-1.4,0-.5.4-.5.4-.9,0-.9-1.3-.9-.4-1.8v-.9c.9-.9,1.7-1.4,3.1-1.4h.4c0-.5-.4-1.4,0-1.4h0ZM163.4,138.2c-.4.5-.4.9-.4,1.4-.4-.5-.4-.9,0-.9q0-.5.4-.5h0ZM160.8,138.7v.9c-.4-.5-.4-.9-.4-1.4.4,0,.4.5.4.5h0ZM164.7,138.7c.4.5-.9.5-.4,1.4.4-.5.4,0,.9,0q-.4-.5-.4-.9h.4c0,.9.9,1.4,0,1.8.4.5.4.9.9,1.4,0,.5-.4.5,0,.9v2.3l-.4-.5v.9s-.4,0-.4-.5c0,0-.4-.5,0-.9v-.9c.4,0,.4-.9.4-1.4l-.9-.9c.4-.5.4-.9,0-1.4-.4,0-.9,0-.9-.5v-.5h.4v-.5h-.9s.4,0,.4-.5c.4,0,.9,0,.9.5h0ZM159.9,138.7v.9c0-.5-.4-.5-.4-.9h.4ZM159.5,139.6s-.4-.5-.9-.5c0,.5.4.5.4.5l-.4-.5q0,.5-.4.5c.4,0,.4.5.4.5v-.5.9c0,.5-.4.9-.4,1.4-.9.9.9,2.7-.4,2.7h-.4c.4-.5,0-.9,0-1.4h.4v.5h.4c0-.5-.4-.9-.9-1.4,0-.5,0-.9.4-1.4.4,0,.4,1.4.4.5s-.4-.9,0-1.4h-.4c0-.5,0-.9.4-.9.4-.5.4,0,.4-.5.4,0,.9.5.9.9h0ZM170.8,141.9s0,.5.4.5h.4s0,.5-.4.9c-.4,0-.4-.5-.9,0,0,.5.9,1.4,0,1.4s-.4.5-.4.5c-.4.5,0,.5,0,.9-.4,0-.4-.5-.4-.5-.4-1.4,1.3-.9.9-1.8v-.5c0,.9-1.7.5-1.3,1.8h-.4c0-.9.4-1.4.4-1.8s0,0-.4,0v-.5c0-.9.4-1.4.9-1.4s1.3,0,1.3.5ZM154.7,143.2c0,.5-.4.5,0,.9-.4.5,0,.9-.4,1.4s-.4,0-.4-.5c0,.5.4.5.4.9v.5c-.4,0-.4-.5-.9-.5s-.4,0-.4-.5l.4.5c0-.5.4-.5,0-.5,0-.5-.4-.5-.4-.5.4,0,.9-.5.9-.9s0-.9-.4-1.4h-.4c.4.5.4.9.4,1.4l-.4.5c0-.5.4-.5,0-.9,0-.5-1.3,0-1.3-1.4.4-.5,1.3.5.9-.5h.4s.4-.5.9-.5c.9,0,.9.9.9,1.8ZM156,142.3c-.4-.5-.4.5-.9,0v-.5s.4.5.9.5ZM156.8,142.8q-.4,0-.9-.5c.4,0,.9,0,.9.5ZM168.2,142.3c0,.5.4,1.4-.4,1.8-.9-.5-.9,1.4-1.3,0,0-.5.4-1.4.9-1.8.4.5.4,0,.9,0ZM163,143.2h-.4c.4,0,.4-.5.4-.5.4,0,.4.5,0,.5ZM167.8,143.2c-.4,0-.9.5-.9.5.4,0,.4-.9.9-.9h.4q0,.5-.4.5ZM156.8,143.2c-.4.9.4.9,0,1.4,0,.5.4.9,0,.9,0,0-.4-.5-.4-.9.4,0,.4-.5.4-.9-.4-.5-.4-.9-.9-.5q.4.5.4.9v.5c0-.5-.4-.9-.9-.9,0,0-.4,0-.4-.5v-.5c.4,0,1.3,0,1.7.5h0ZM163.8,143.7h-1.3s.4,0,.9-.5l.4-.5v.9ZM173.9,143.7h-.4c-.4.5-.9.9-.9,1.8h.9v.9c-.9-.5-1.7-.5-2.2,0v-1.4c.4-.5.9,0,1.3,0v-.5c-.4-.9-1.7.5-1.3-.9.4,0,.4-.9,1.3-.5.4,0,.9,0,1.3.5ZM152.5,143.7v.5c0,.5-.9,0-.9.5.4.5.9.5.9.9.4.5-.4,1.4,0,1.8v1.4c-.9.5-.9.9-1.3,1.4-.4-.5,0-.9-.4-.9,0-.5.4,0,.9,0,.4-.5.4-.9.4-1.4-.4-.5-.9-.9-.9-1.4.4,0,.4.5.9,0v-.5s-.4.5-.4,0h-1.3c0-.5,0-.9.9-.9,0-.5-.4-.9-.4-.9-.4-.5-.9,0-.9.5-.4,0,0,.5,0,.9l.4-.5c0,.9-1.3.9-.9,1.8-.4,0-.4.5-.4,0-.9-.5.4-.9.4-1.8-.4-1.4,1.3-.9,1.7-1.8.4,0,.9.5,1.3.5h0ZM156,144.6c0,.5.4.9.4,1.4h-.4c0-.5,0-.9-.4-.9,0,0-.4,0-.9-.5v-.9c.4.5.9.5,1.3.9h0ZM166,143.7c-.4,0-.4.5-.4.5h.4c-.4,0,0,.5-.4,0,.4.5-.4-.5,0-.5h.4ZM173,144.1h-.4c.4,0,.4-.5.4-.5v.5ZM168.2,145c-.9-.5-1.3,1.4-1.3.5s.4-.9.4-.9c.4,0,.9,0,.9-.5v.9ZM175.2,146.4h-.4s-.4-.5-.9-.5c0,0,0-.5-.4-.5h.4c.4-.5,0-.9,0-.9,0,.9,1.3.9,1.3,1.8ZM150.3,144.6s0,.5,0,0ZM173.4,144.6c.4,0,0,.5,0,.5h-.4c0-.5.4-.5.4-.5ZM166.5,146.4c.4.9-.4,1.4,0,1.8v-.5l.4-.5c0,.5,0,.9-.4,1.4v.5q.4,0,.9-.5c0,.9-.9,1.4-.4,1.8l.4-.5c.4.5-.4.9,0,1.4,0,0,.4-.5.4-.9.4.9,0,.9-.4,1.4,0,.9,0,1.4.4,1.8q.4.5.4.9c0,.5-.4.5-.4.9v.5s-.4,0-.4-.5.4-.9.4-1.4c-.4,0-.4.5-.4.5,0-.5.4-1.4,0-1.8,0-.5,0-1.4-.4-1.8,0-.5-.9-.9-.4-1.8-.4-.5-.4-.9-.4-1.4,0-.9.4-1.8.4-2.7v1.4ZM158.6,145.9v-.9,1.4s0,.5-.4.5c0-.9-.9-.9-.9-1.4.4-.5.9-.5.9-.5.4,0,0,.5.4.9h0ZM170.8,145c-.4.5,0,1.4-.9,1.4s-.4.5-.9.5,0-.5,0-.9c.4,0,.9.5,1.3,0,0-.5,0-.9.4-.9ZM162.5,145.5c-.4,0-.4.5-.4.5h-.4l.4.5s.4-.5.4-.9c.4.5,0,.5,0,.5-.4.5-.9.5-1.3,0q-.4,0-.4-.5h.9c0-.5.4,0,.9,0ZM167.8,146.4c-.4,0-.4-.5-.4-.5,0-.5.4-.5.9-.5,0,0,.4.9-.4.9ZM156.4,146.4s0,.5-.4.5-.4-.5-.4-.5h-.9l.4-.9c.4,0,.4,1.4,1.3.9ZM162.1,146.8c.4-.5.9-.9,1.3-.9,0,.5.4.9,0,1.4h-1.3.4c-.4-.5-.9,0-1.3,0s-.9.5-1.3-.5l.4-1.4c.4.5.9,1.4,1.7,1.4ZM157.3,146.4c-.4.5,0,.5-.4.9,0-.5-.4-.9-.4-1.4.4,0,.4.5.9.5ZM161.6,145.9c0,.5-.4,0-.4,0h.4ZM150.3,146.8s0,.5-.4.5h-.9c.4-.5.9-.5,1.3-.9h.4l-.4.5ZM163,146.8l.4-.5s0,.5-.4.5ZM165.6,146.8c.4.9-.9.9-.9,1.4h-.4c.4-.5-.4-.5,0-.9,0-.5.4-.5.4-.5.4.5,0,.5.4.9,0-.5.4-.5,0-.5v-.9s.4,0,.4.5ZM174.8,146.8v.5c-.4-.5-.4-.9-.9-.9q.4,0,.9.5ZM153.8,146.8c0,.5.9.9,0,1.8.4-.5,0-.9,0-1.4-.4,0-.9-.5-.9-.5v-.5s.4.5.9.5h0ZM171.3,147.8s0,.5.4.9l.9-.5c-.4.5.4,1.4,0,1.4-.9,0-.9-1.4-1.3-.9-.4-.5,0-1.4,0-1.8,0,0,.4,0,.4-.5.4.5,0,.9-.4,1.4h0ZM156,147.8c0-.5.4,0,.4,0,0,0,0,.5-.4.5s-.4-.5-.4-.5c-.4,0-.9-.5-.9-.5v.5c0,.5.9.5,1.3.9v.5s0,.5-.4.5c0-.9-1.3-.5-.9-1.8l-.4-.5.4-.9c.4.9.9.9,1.3,1.4h0ZM172.1,147.3q0-.5.4-.9t-.4.9ZM154.2,146.8h-.4.4ZM158.6,147.3h.4c0,.5,0,0,.4,0,0,.5-.4.5-.4.5l-.4.9c-.4-.5,0-1.4-.9-1.4v-.5l.4.5c.4,0,.4-.5.4-.5v.5ZM168.2,147.3c-.4,0-.4.5-.9.9-.4-.5.4-.9.4-1.4h.4v.5ZM170.4,147.8c-.4.5-1.3.5-.9.9-.4,0-.4-.5,0-.5,0-.5.4-.5.4-.9l.4-.5v.9ZM173.9,147.3l-.4-.5h.4v.5ZM151.6,147.8h-.4c.4,0-.4-.5,0-.9,0,.5.4.5.4.9ZM149.8,147.3h-.4v-.5q.4,0,.4.5ZM150.7,147.3h-.4l.4-.5v.5ZM156.8,147.8q.4,0,.4-.5v.5c-.4.5.4.9-.4,1.4.4.9-.4.9-.4,1.8-.4.5,0,.9-.4,1.4.4.9-.4,1.4,0,1.8v.5c0-.5-.4-1.4-.4-1.8v-.5s.4.5.4,0-.4-.9,0-1.4v.5c.4-.5,0-.9,0-1.4v-.5c.4,0,.4.5.4.5v-1.4c0-.5,0,.5.4.5.4-.5-.4-.9-.4-1.8.4,0,.4.5.4.5h0ZM173.9,147.8h-.4l.4-.5v.5ZM150.7,147.3v.5-.5ZM172.1,147.8h.4c0,.5.4,0,.4.5s.4.5,0,.5c0,0,0-.5-.4-.5s-.9,0-.9-.5h.4ZM154.2,149.1c0,.5,0,.9-.4.9.4-.9-.9-1.4-.9-2.3.9.5.4,1.4,1.3,1.4ZM163.8,149.1l-.4.5v-1.4.5l.4-.9c.4.5,0,.9,0,1.4ZM168.6,147.8c.4.9-.9.5-.9,1.4,0-.5.4-.5.4-.9l.4-.5ZM150.3,148.2h.4v.5s-.4-.5-.4,0c0-.5-.4-.5,0-.9v.5ZM159.5,148.2q.4,0,.9.5v-.5c0,.5-.4.9,0,1.4-.4,0-.9-.5-.9-.5,0-.5-.9-.5-.4-.9h.4ZM163,148.7v.5q-.4.5-.9.5v-.9c0-.5,0,0,.4-.5q0,.5.4.5ZM161.2,148.7h.4q-.4,0-.4.5s.4,0,.4.5c-.4,0-.9,0-.9-.5,0,0-.4-.5,0-.5h.4ZM158.1,149.1v-.5.5ZM170.4,150h.4c.4,0,0,.5,0,.9h.4q-.4,0-.9-.5c.4,0,.4-.5,0-.5-.4.5-.4,0-.4,0,0-.5,0-1.4.4-1.4.4.5-.9,1.4,0,1.4ZM155.5,150.5s-.4.5-.4,0v-.5c-.4-.5-.9-.9-.9-1.4h.4c.4.5.9.9.9,1.8h0ZM165.6,149.6v-.5s.4,0,0,.5ZM169.1,149.6c-.4,0-.9,0-.9.5.4,0,.9,0,1.3-.5.4.9-.9.9-.9,1.8h.4c0-.5.4-.5.9-.9,0,.5.4.5,0,.5,0,.5-.4.9-.4,1.4h.4c.4,0,0-.9.9-.9,0,.9-1.3.9-.4,1.8.4,0,.4-.5.4-.5l.4-.9c.4.5-.9,1.4,0,1.8l.4-.9c.4.9-.9,1.4,0,1.8-.4,0-.4-.5-.9-.9s-.9-.9-1.3-1.4c0-.5-.9-.5-.9-1.4s-.9-.9-.4-1.4c0-.5.9-.9.9,0h0ZM153.3,149.6s-.4,0-.4.5,1.7.9.4,1.4c-.4.5.4.5.4,1.4h-.9c0-.5.4-.5,0-.9,0,0-.4-.5-.4-.9.4,0,.4.5.9.5v-.5c-.4-.5-.9-.9-.4-1.4-.4-.5.4,0,.4,0ZM164.7,150s-.4-.5,0-.5c0,0,.4.5,0,.5ZM158.6,150.5h-.4c-.4-.5.4-.5.4-.9.4,0,.4.5,0,.9ZM158.1,149.6l-.4.5v-.5h.4ZM157.3,149.6v.9-.9ZM166,150.5s.4.5,0,.5c0-.5-.4-.5-.4-.9q.4,0,.4.5ZM160.3,150c-.4.5-.9.9-.9,1.4-.4,0-.4-.5-.4-.5.4-.5.4-1.4.9-.9h.4ZM164.7,150.9v.5c0-.9-1.3-.5-1.3-1.4.4,0,.4.9,1.3.9ZM163.4,151.4c.4,0,.4.5,0,.5,0-.9-1.3-.9-1.3-1.8,0,.5.4,0,.4,0,.4.5.9.9.9,1.4ZM155.1,150.9q.4.5.4.9c-.4,0-.9,0-.9.5,0,0,.4.5.4.9h-.9q.4.5.4.9c0,.5-.4.5-.4.5,0,.5.4.5.4.9l-.4.5v-.9c-.4,0-.9,0-.9-.5v-.5l.9.5s.4-.5,0-.9c0,0-.4,0-.4-.5v-.5c.4,0,.4.5.9,0,0-.5-.4-.5-.9-.9.4,0,0-.5.4-.5,0,0,0,.5.4.5.4-.5-1.3-1.4,0-1.8,0,.5,0,.9.4.9ZM161.2,150c.4.5,0,.9,0,.9-.4.5-.9.5-.9.5h-.4c.4-.5.9-1.4,1.3-1.4ZM165.6,150.9s0,.5-.4.5c.4-.5-.9-.9,0-1.4l.4.9ZM157.7,150.9c.4.5-.4.5-.4.5q0-.5.4-.9v.5ZM156.8,150.9c.4,0,0,.5,0,.5-.4,0,0-.5,0-.5ZM163.4,152.7q0,.5-.4.5c0-.5-.4-.9-.4-.9-.4,0-.9-.5-.9-.9,0,0,.4,0,.4-.5.4.5.9.9,1.3,1.8h0ZM158.6,151.4c0,.5-.4.9-.4,1.4v-.9c0-.5.4-.5.4-.9v.5ZM166.5,151.4s0,.9-.4.9c0-.5.4-.5.4-.9-.4,0-.4.5-.9.5,0,0,.4.5,0,.5,0,0-.9-.5-.4-.9l.4.5c0-.5.4-.9.9-.5ZM165.1,152.7h-.4c0-.5-.9-.5-.4-1.4,0,.5.9.9.9,1.4ZM161.6,151.8c0,.9-1.3.9-.9,1.8h-.9v-.9c.9,0,.4-1.4,1.3-.9h.4ZM168.2,153.2l.4-.9c.9.9-.4,1.8.4,2.3,0-.5.4-.9.4-1.4.9.9-.9,1.4,0,2.3-.4,0-.4-.9-.9-.9-.4-.9,0-1.4-.9-1.4v-.9l.4-.5c.4.5-.4.9,0,1.4ZM152.9,153.7c.4,0,0,.5,0,.5,0-.9-1.3-1.4-.9-2.3.9.5.4,1.4.9,1.8ZM156.8,152.3s0,.5-.4,0c0,0,.4,0,.4-.5v.5ZM159.5,151.8c0,.5-.4.9,0,1.4q-.4,0-.4-.5v-.9h.4ZM157.7,152.7l-.4.5c-.4-.5,0-.9.4-1.4v.9ZM164.7,154.1c-.4,0,0-.5-.4-.9-.4,0,0-.5-.4-.9h.4c-.4.9.9.9.4,1.8ZM162.5,153.2c.4.5,1.7.9.4,1.4,0-.5,0-.9-.4-.9,0,0-.4-.5-.9-.5v-.5c.4,0,.9,0,.9.5ZM166.9,152.7c0,.5-.4.5-.4.5v-.5c0-.5.4-.5.4,0ZM156.8,153.7q-.4-.5,0-.9v.9ZM158.6,152.7c0,.9-.4.9,0,1.4h-.4c0-.5.4-.9.4-1.4ZM162.1,154.1c.4,0,.9,0,.9.5s.4.5.4.5c.4.5,0,.5,0,.9h-.4c.4-.5,0-.9-.4-.9-.9-.5-.9-.9-1.3-1.4,0,.9-.9.9-.4,1.4-.4.5-.4,0-.4,0-.4-.9.9-.9.4-1.8q.4,0,.9-.5c-.4.5,0,.9.4,1.4ZM166,153.7v.5c0-.5-1.3-.9-.4-.9l.4.5ZM159.9,154.1c-.4.5-.9.5-.9.9h.4-.4v-.9l.4-.9s.4.5.4.9ZM152.5,154.6v.5c0-.9-.9-.9-.4-1.8.4,0,.4.9.4,1.4ZM157.3,154.6c-.4-.5,0-.9.4-.9,0,0-.4.5-.4.9ZM166.9,153.7v.5c-.4,0-.9-.5-.4-.5.4-.5.4,0,.4,0ZM155.5,154.6v.5c.4-.9-.4-.9,0-1.4,0,.5.4.5,0,.9h0ZM164.7,155.5l-.4.5c.4,0,.4.5.4.5v.5c0-.5-.4-.9-.4-.9-.4,0,0-.9-.4-.9.4,0,.4.5.4.5h.4c0-.9-.9-.9-.9-1.8.4.5,1.3.9.9,1.8ZM156.8,154.1h-.4s0-.5.4,0ZM170.4,155.9c.4-.5.4-.9.9-1.4v.9c-.4,0-.4.5-.4.9h.4c-.4.5-.9,0-1.3-.5,0,0-.4-.9,0-1.4l.4-.5c.4.5-.4,1.4,0,1.8h0ZM166,155.5c0-.5-1.3-.9-.9-1.4.4.5.9.9.9,1.4ZM155.1,155h-.4v-.5q.4,0,.4.5ZM157.7,154.6c.4.5,0,.5,0,.9,0,0,0,.5-.4.5,0-.5,0-.9.4-1.4h0ZM158.6,154.6c0,.5-.4.9,0,1.4h-.4c0-.5.4-.9.4-1.4ZM152,155c.4,0,.4.5.4.9-.4,0,0-.5-.4-.5,0-.5-.4-.5,0-.9v.5ZM156.8,155.9c-.4-.5-.4-.9-.4-1.4.4.5.4.9.4,1.4ZM166.5,155v.5-.9.5ZM167.3,156.8c0,.9-.9.9-.9,1.8.9,0,.9.9,1.3.9.9,1.8.4,4.1.4,5.9,0,0,0,.5.4.5,0-1.8.4-3.6,0-5.9.4,0,.4.5.4.5.4,1.8-.4,3.6,0,5,.4.9,0,1.8.4,2.3v-.5c-.4.5,0,.9.4.9-.9,0-.9-1.4-1.3-1.8,0,.9,0,1.8.9,2.3.4,0,0,.5.4.5,0,.5.9.5.4.9v.5-.5h-.4c0-.5,0-.9-.4-.9,0,.5,0,.9-.4.9q-.4-.5-.9-.9c-.4-1.4-.4-2.3-.9-3.2-2.2-1.8,0-5-.9-7.3v-1.4c.9,0,.4-.9.9-1.4,0-.5-.4-.9,0-.9-.4.5.4,1.4,0,1.8ZM159.9,155.9s-.9.5-.9.9v-.9c.4-.5.4-.9.9-.9v.9ZM156,155v.9c-.4-.5,0-.9,0-.9,0-.5,0,0,0,0ZM168.6,155.9s-.4.5,0,.9c-.4,0-.4-.5-.4-.5,0-.5,0-.9.4-1.4.4,0,.4.5,0,.9ZM163,156.4s.9,0,.4.5v.5c0-.5-.9-.9-1.3-1.4,0,0,0-.5-.4-.9.4.5,1.3.5,1.3,1.4ZM161.6,155c.4.9-1.3.9-.9,1.8l-.4-.5s0-.5.4-.5l.4-.5s0-.5.4-.5ZM154.2,156.4c0,.5-.4.5-.4.5-.4,0,0-.5,0-.5-.4-.5-.9-.5-.4-.9,0,0,.4.5.9.9ZM156,155.9c-.4,0,0,.5-.4.5,0-.5,0-.9-.4-.9.4,0,.9,0,.9.5ZM166,155.9c-.4.5,0,.5-.4.5,0,0-.9-.5-.4-.9q.4.5.9.5ZM169.5,156.4c0,.5-.9.9-.4,1.4-.4-.5-.4-.9-.4-.9.4-.5.4-1.4.9-.5h0ZM158.6,157.3c-.4-.5,0-.9,0-1.4v1.4ZM166.5,156.4v.5-.9.5ZM156.4,156.8c-.4,0-.4-.5-.4-.9,0,.5.4.5.4.9ZM158.1,156.4l-.4.5v-.9c.4,0,.4.5.4.5ZM156.8,157.3v-.9s.4.5,0,.9ZM163,156.8v.9h.4c0,.5,0,.9-.4.9,0-.5,0-.9-.4-.9-.4-.5,0-.9-.4-1.4-.4.5-1.3.9-.9,1.8,0-.5,0,0,0,0q-.4-.5-.4-.9c.4-.5.4-.9.9-.9s.9.5,1.3.5h0ZM155.5,157.3l-.4.5c.4-.9-.9-.9-.4-1.4.4.5.9.5.9.9h0ZM159.9,156.4c.4.5-.9.9-.4,1.4.4,0,.4-.5.9-.5.4.9-.9.9-.4,1.8v-.5l.4.5h-.9c-.4,0,0-.5,0-.9s-.9-.5-.4-.9c.4-.5.4-.9.9-.9h0ZM164.3,156.8c-.4.5.9.9,0,1.4,0-.5-.4-.9-.4-1.4s-.4-.5,0-.5c0,0,.4,0,.4.5ZM170.4,156.8c-.4.5-.4.9-.4,1.4-.9-.5,0-1.4,0-1.8.4,0,.4.5.4.5ZM153.8,157.7c-.4,0-.4.5-.4,0-.4,0,0,0,0-.5-.4-.5-.9-.5-.4-.9,0,.5.9.5.9,1.4h0ZM167.8,156.8v1.4s0-.5-.4-.5c.4-.5.4-.9.4-1.4,0,0,.4.5,0,.5h0ZM165.6,157.7s-.4,0-.4.5q-.4-.5-.4-.9l.4.5c.4,0-.4-.5,0-.9.4,0,.4.5.4.9h0ZM156,158.2h-.4c0-.5.4-.9.4-.9v.9ZM166,157.7v.5c-.4-.5,0-.9,0-.9,0,0,.4.5,0,.5h0ZM158.6,157.3v.9-.9ZM158.1,157.3q0,.5-.4.9v-.9h.4ZM154.7,158.2v.5c-.4,0,0-.5-.4-.5.4,0,0-.5,0-.9.4.5.9.5.4.9ZM156.8,158.2c.9.9,0,1.8.4,2.3.4-.5,0-1.4.4-1.4.4.9,0,1.8,0,2.7,0-.5,0-1.4-.4-.9,0,1.4.9,3.2,0,4.5,0,.5-.4.5-.4.9v-.5c-.4.9-.4,2.3-1.3,3.2q0,.5.4.5c0,.5-.9,0-1.3.5l-.4.5v-1.8c.4,0,1.3.5,1.3,0,.4-.5.4-.9.4-.9-.4,0-.4.5-.4.5v-.9q-.4.5-.4.9h-.4c.4-.5.4-.9.4-1.4h-.4c.4-1.8.9-4.1.4-5.9,0,.5,0,1.8-.4,2.7,0-1.4-.4-2.7,0-3.6,0,0,0,.5.4.9,0-.5-.4-1.8.4-1.4,0-.9.9-.9.9-1.8v-.5c.4.5,0,.9.4.9h0ZM162.5,158.6s0,.5.4.5c-.4,0-.9,0-.9-.5v-.9c-.4.5-.9.9-.9,1.4-.4.5-.4,0-.4,0v-.9c.9.5.4-.5.9-.5.4.5,1.3.5.9.9h0ZM157.7,158.2q-.4,0-.4-.5c0-.5,0,.5.4.5ZM168.6,158.6h.9s-.9.9,0,.9c-.4.5-.4,0-.9-.5h.4-.9c-.4-.5,0-.9,0-.9l.4-.5c0,.5-.9.9,0,.9ZM167.3,158.2h-.4v-.5q.4,0,.4.5ZM155.5,158.6s-.4,0-.4.5c-.4-.5,0-.5,0-.9.4,0,0,.5.4.5ZM154.2,158.6v.5h-.4v-.9c.4,0,.4.5.4.5ZM165.1,158.6c.9,2.7-1.3,5.4.4,8.2,0,.5,0,.9-.4,1.4.4.5.9,0,.9.5v.9c-.4-.5-.4-1.4-.9-1.4,0-.9-.4-1.8-.9-2.7v.5c0,.9.4,1.8,0,2.7,0,.5.4.9,0,1.4,0,0,0-.9-.4-.9v.9c-.4-.5,0-.9,0-1.4h.4c-.4-1.8,0-3.2,0-4.5-.4,0,0,.5-.4.9-.4.9,0,2.3-.4,3.6v-.9c-.4-1.4.4-2.7.4-4.1v-4.1c.9,0,.9-1.8,1.3-.9ZM167.8,158.6v.5l-.4-.5c0-.5.4-.5.4,0ZM164.3,158.6s-.4,0-.4.5v-.5h.4ZM161.6,160c-.4-.5,0-.9,0-.9.4,0,.4.5,0,.9ZM159.5,159.5c.4.9,0,2.3,0,3.2.4.9.4,1.8.9,2.3v.5h-.4c0,.5.4,1.4,0,1.8v-.9c-.4.5,0,.9-.4.9,0,0,0-.5-.4-.5,0,.5,0,1.4-.4,1.8v1.4-1.4c0-.5.4-.5.4-.9v-.9c-.4.5-.4.9-.4.9,0,0,0,.5,0,0v-4.1c-.4-1.4-.4-3.2-.4-4.5.4,0,.9,0,1.3.5h0ZM166,160.5c0,1.4,0,2.7-.4,4.1-.4-1.8.4-3.6.4-5.4.4.5,0,.9,0,1.4h0ZM168.6,159.5h-.4s.4-.5.4,0ZM160.8,160v.5c0,1.4,0,3.2-.4,4.1,0-1.4-.4-2.7-.4-4.1s0-.9.4-.9l.4.5ZM163,159.5h-.4.4ZM163.4,160c0,.9.4,2.7,0,3.6-.4-.9-.4-2.3-.4-3.2-.4-.5,0-.5.4-.5h0ZM162.5,161.4c-.9,2.3,1.3,4.5,0,6.8,0,.9.4.9.4,1.8-.4,0-1.3,0-1.7-.5-.4-.5,0-.9-.4-1.4.4-1.4,0-2.7.4-4.1v-2.7c-.4-.5.4-.5.4-.5.4,0,.9,0,.9.5ZM156.4,166.4c0-1.4.4-2.3.4-3.6v-1.8c.4,1.8,0,3.6-.4,5.4ZM158.1,164.1c-.4,1.4.9,3.6-.4,4.1-.4-.5,0-.9,0-1.4,0-.9.4-1.8.4-3.2v.5ZM166.5,165.9v2.3c-.9,0-.4-.9-.4-1.8-.4-.5,0-.9,0-1.4.4,0,0,.5.4.9ZM157.3,166.8c-.4,0,0-.5,0-.9v.9ZM167.3,167.7c-.4,0-.4-.5-.4-.5v-.9c.4.5,0,.9.4,1.4h0ZM160.8,166.4v.9s-.4-.5-.4-.9h.4ZM160.3,168.6v.5s.4,0,.4.5v.5-.5h-.9v.5-.9s0-.5-.4-.5l-.4.5.4.5s0-.5-.4,0c-.4,0,0,.5,0,.5-.4-.5-.4-.9,0-1.4v-.5c.4,0,.4.5.4,0l.4-.5c.4,0-.4.9.4.9h0ZM166,168.2h-.4v-.5c.4,0,.4.5.4.5ZM156.8,167.7c.4.5,0,.5,0,.5v-.5ZM167.3,168.2v.5l-.4-.5h.4ZM158.1,168.2c0,.5-.4.9-.4,1.4-.4,0-.4-.5-.4,0-.4,0,0,0-.4.5v-.5c.4-.5.9-.5.9-1.4h.4ZM167.3,169.5v.5-.5c-.4,0,0,.9-.4.5,0-.9-.4-.9-.4-1.8.4.5.4,1.4.9,1.4ZM171.7,168.6c-.4.5,0,.5.4.9,0,0,.4,0,.4.5-.4,0-.4-.5-.4-.5l-.4.5c-.4-.5-.4-1.4-.9-1.8.4,0,.4.5.9.5ZM153.3,168.2c0,.9-.4,1.4-.4,1.8q-.4,0-.4-.5c.4,0,.4-.5.4-1.4h.4ZM157.3,168.6c.4.5-.4.5-.4.5-.4,0,0,0,0,0l.4-.5ZM165.1,168.6s-.4.5,0,.5c0,0,.4,0,.4.5v.5c-.4-.5,0-.5-.4-.9v.9c-.4,0-.4-.5-.4-.9,0,0,0-.5.4-.5ZM153.8,168.6c.4.5-.4.9,0,1.8h-.4v-.5h-.4v-.5h.4c.4,0,0-.9.4-.9ZM170.8,168.6c.4.5,0,.9.4.9-.4,0-1.3-.5-1.3-.9h.9ZM168.2,169.5s0,.5-.4.5v-.9l.4.5ZM166.5,169.5h-.4l.4-.5v.5ZM158.1,169.1c-.4.5.4,1.4-.4.9,0-.5,0-.9.4-.9ZM154.2,169.5c0,.5-.4.5,0,.5h-.4v-.5h.4ZM152.9,170.4h-.4v-.5l.4.5ZM171.3,170.4h-.4v-.5h.4v.5ZM171.7,170v.5-.5ZM165.6,172.2c.9.9.9,2.3.9,3.2-.4,1.8-1.7,2.7-3.1,3.2-1.7.5-3.5-.5-4.4-1.8-.4-1.4-.4-3.2-.4-4.1.9-1.4,1.7-2.3,3.1-2.3,1.3-.5,3.1,0,3.9,1.8ZM158.6,170.4l-.4.5h-.4c0-.5.4-.5.9-.5ZM159,170.4c-.4,0-.4.5-.4.5q0-.5.4-.5ZM159.9,170.4c-.4,0-.4.9-.9.5l.4-.5h.4ZM166,170.9c-.4,0-.4-.5-.4-.5,0,0,.4,0,.4.5ZM166.9,170.9c-.4.5-.4-.5-.9-.5.4,0,.9,0,.9.5ZM157.3,170.4s.4.5,0,.5c0,.5-.4,0-.4,0l.4-.5ZM165.6,170.9c-.4.5-.4-.5-.9-.5q.4,0,.9.5ZM167.3,170.9l.4-.5v.5h-.4l-.4-.5q.4,0,.4.5ZM168.6,170.9c-.4.5-.4-.5-.9-.5.4,0,.9,0,.9.5ZM169.1,170.9c-.4.5,0-.5-.4-.5,0,0,.4,0,.4.5ZM156.4,170.4c.4,0,0,.5,0,.5,0,.5,0,0-.4.5v-.5l.4-.5ZM169.9,170.9c0,.5,0,0-.4,0v-.5l.4.5ZM170.8,170.9c-.4.5-.4,0-.9-.5h.4c0,.5.4.5.4.5ZM155.1,170.4q0,.5-.4.9c0-.5,0-.9.4-.9ZM156,170.4c0,.5-.4.5-.4.9-.4-.5,0-.9.4-.9ZM154.2,170.4c.4.5,0,.5,0,.9-.4-.5,0-.5,0-.9ZM171.3,170.9v.5l-.4-.9c.4,0,.4.5.4.5h0ZM165.6,172.7c.9.9.4,2.7,0,3.6-.9,1.4-2.6,1.8-3.9,1.8s-.9-.5-1.7-.9c-.9-.9-1.3-2.3-.9-4.1,0-.9,1.3-1.8,2.2-2.3,1.7-.5,3.5,0,4.4,1.8h0ZM171.7,170.9v.5-.5ZM152.9,171.3v-.5.5ZM172.6,170.9v.5c-.4,0-.4-.5-.4-.5h.4ZM163,170.9l-.4,2.7v-2.7c0,.5.4,0,.4,0ZM152.5,171.3v-.5.5ZM162.1,173.6c0-.9-.4-1.8-.4-2.7h.4v2.7ZM163.8,171.3c-.4.9-.9,1.4-.9,2.3,0-.9,0-1.8.4-2.7,0,.5.4.5.4.5ZM152,171.3c-.4,0,0,0,0,0ZM161.2,171.3c.4.5.4,1.4.9,2.3-.4-.9-.9-1.8-1.3-2.3h.4ZM167.8,172.2c.4,0,.4-.5.4-.5v-.5c.4,0,0,.5.4.5.4.5,0,.5.4.9q-.4.5-.9.9c-.4,0,0,.5-.4.5,0,0-.4.5-.4,0,0,0,.4,0,.4-.5-.4,0-.4.5-.9,0h.4c0-.5-.4-.9,0-1.4.4-.5-.4-.9,0-.9s0,.5.4.9h0ZM166.9,171.3c.4.5,0,.9,0,1.8-.4,0-.4-.9-.9-1.4l-.4-.5h1.3ZM154.7,171.8c-.4.5,0,.9,0,.9.4.5.4.9.4,1.8.4.5,1.3-.5,1.7,0,.4,0,.9.5.9,0,0-1.4.4-2.3.9-2.7,0,.5-.4.5,0,.9-.4.5,0,1.4-.4,1.8,0,.5-.9,0-1.3.5.4.5.4.9.4,1.4.4,0,0,0,0,.5-.4,0-1.3-.5-1.7-.9,0,.9-.9,0-1.3,0v-.5c0,.5,0,.9-.4,1.4-.4,0-.9,0-.9.5-.4.5.4.5.9.9-.4.5-.9,0-.9,0-.4-.5-.4-.9-.4-1.4.4-.5,1.3-.5.9-.9-.4-.5.4-.9,0-1.4v-1.8h-.4c.4,0,0,.9,0,.9-.4,0-.4-.5,0-.5,0-.9,0-1.8.9-1.8s.4.5.9.5ZM158.6,171.3c0,.5-.4.9-.9,1.4s0,.9-.4,1.8c-.4-.9-1.7.5-1.7-.9-.4-.9-.9-1.4-.9-2.3h3.9ZM161.6,173.6c-.4-.5-.9-1.4-1.7-1.8.4,0,.4-.5.4-.5.4.9.9,1.4,1.3,2.3h0ZM164.7,171.8c-.9.5-1.3.9-1.7,1.8.4-.9.9-1.4,1.3-2.3,0,.5.4.5.4.5ZM168.2,171.3s0,.5-.4.5v-.5h.4ZM170.4,171.8h.4c0,.5,0,0-.4.5h.4c.4.9.4,1.4.4,1.8h-.9v-.5s0-.5-.4-.5c0-.5-.9,0-.9-.9s-.4-.5,0-.5l-.4-.5c.9,0,1.7,0,1.7.5ZM173.4,173.6c0,1.4,0,2.3-.4,3.6v.5c0-1.8,0-4.1-.4-5.9v-.5c.4.9.4,1.8.9,2.3h0ZM172.1,173.6c.4-.9,0-1.4,0-2.3.9,1.8.9,4.5.4,6.4v-1.8c-.4.5-.4,1.4-.4,1.8,0-.9.4-2.3-.9-3.2v-2.3h.4v1.4c.4-.9,0-1.4,0-2.3.4.5.4,1.4.4,2.3ZM161.2,173.6c-.4-.5-.9-.9-1.7-.9l.4-.9,1.3,1.8ZM165.1,172.2v.5c-.9,0-1.3.5-2.2.9l1.7-1.8c.4,0,0,.5.4.5ZM151.2,172.2c.9,1.4.9,3.6.4,5.4,0-1.8,0-3.6-.4-5.4ZM152.5,172.7v-.5.5ZM152,174.1l.4-.5-.4-1.4s0,.5.4.5v1.4s.4,0,.4.5v.9c-1.3,0-.4,1.8-.9,2.7,0-2.3,0-4.1-.4-5.9.4.5.4,1.4.4,1.8ZM168.2,172.2q0,.5-.4.5c-.4,0,0-.5.4-.5ZM173.9,175v1.4l-.4-3.6c.4.5.4,1.4.4,2.3h0ZM161.2,174.1c-.4,0-1.3-.5-2.2-.5,0-.5.4-.5.4-.9.4.5,1.3.9,1.7,1.4h0ZM165.6,173.6c-.9,0-1.7,0-2.2.5.4-.5,1.3-.9,1.7-1.4l.4.9ZM168.2,172.7v.5q-.4,0,0,0v-.5ZM169.9,173.2c0,.5-.4.9-.4,1.4.4.9-.4,1.4-.4,2.7-.4.5.4,1.4-.9.9.4,0,.4-.5.4-.5v-.5l-.4-.9c.4-.5.4-.9.4-1.4-.4.5-.4.9-.4,1.4-.4-.5,0-.5,0-.9l-.4.5c-.4-.5.4-.5.4-.9,0,0,0-.5.4-.5-.4,0,0-.5-.4-.5,0-.5.9-.5,1.3-.9h.4ZM161.2,174.5c-.9-.5-1.7,0-2.2,0v-.9c.9.5,1.3.5,2.2.9ZM165.6,173.6v.5c-.4,0-1.3,0-2.2.5h2.6l-.4.5c-.4,0-1.3-.5-2.2-.5v-.5c.9,0,1.7,0,2.2-.5ZM163,174.1c.4.5,0,.9-.4,1.4-.4,0-.9-.5-.9-.5v-.9l.4-.5c.4,0,.9,0,.9.5ZM151.2,176.3v-2.7c0,.9.4,1.8,0,2.7ZM163,174.5l-.4.5q-.4,0-.4-.5c-.4,0,0-.5,0-.5.4-.5.4,0,.9.5ZM174.3,174.5v-.5.5ZM166.9,174.5v-.5.5ZM171.7,175.4c0,.9-.9,1.4-1.3,2.7h-.4c0-.9,1.3-1.4.9-2.3-.4.5-.9.5-1.3.5,0-.5.4-.9.4-1.4.4-.5.9-.5,1.3-.5,0,.5.4.5.4.9ZM167.8,174.5h-.4.4ZM150.7,175.4c-.4,0,0-.5,0-.9v.9ZM161.2,174.5c-.4.5-.9.5-1.3.5l-.9.5v-.9c.9.5,1.7,0,2.2,0ZM166.9,175c0,.9,1.3,1.4.4,2.3,0,.5-.4.5-.4.9-.4.5-1.3,0-1.7.5,0-.5,0-.9.4-.9,0-.5.4-.9.9-.9,0-.9.4-1.4.4-2.3.4.5,0,.5,0,.5ZM167.8,175.4h-.4l.9-.9c0,.5-.4.5-.4.9ZM168.2,175.4l.4-.9-.4.9ZM164.7,175.4v-.5l.4.5c0-.5.4,0,.4,0,0,0-.4.5,0,.5-.9-.5-1.3-.9-2.2-.9.4,0,.9,0,1.3.5ZM167.8,175h-.4.4ZM161.2,175c-.4.5-1.3.9-1.7,1.4,0-.5,0-.9-.4-.9.4,0,1.3,0,1.7-.5h.4ZM165.1,176.3v.5c-.4-.5-1.3-1.4-1.7-1.8.4.5,1.3.9,1.7,1.4ZM158.1,175v.5h.4s-.4,0-.4.5c.4,0,.4.5.4.5h-.4.4c-.4-.5-.4,0-.4,0l-.4-.5v-.5c0-.5.4-.5.4-.5ZM161.6,175.4c-.9.5-1.3.9-1.7,1.4,0,0-.4,0-.4-.5.4-.5,1.3-.9,2.2-1.4v.5ZM163.4,175.9c.4,0,.9.9,1.3.9.4.5-.4,0-.4.5-.4-.5-.9-1.4-1.3-1.8v-.5q.4.5.4.9ZM161.6,175.4c-.4.5-.4,1.4-.9,2.3,0-.5-.4-.5-.4-.5.4-.9.9-1.4,1.3-1.8h0ZM163.4,176.3c.4.5.4.9.9.9l-.4.5h-.4c0-.9,0-1.4-.4-2.3.4,0,0,.9.4.9h0ZM161.6,177.7v.5q-.4-.5-.9-.5c.4-.9.9-1.4,1.3-2.3,0,.9-.4,1.4-.4,2.3ZM162.5,178.1c-.4,0-.4-.5-.9-.5.4-.5.4-1.4.4-2.3,0,.9.4,1.8.4,2.7ZM163,176.3h-.4c.4.5.4.9.9,1.4,0,0-.4,0-.9.5,0-.9.4-1.8,0-2.7,0,0,0,.5.4.9ZM152.9,175.4q0,.5-.4.5c-.4,0,0-.5.4-.5ZM152.5,176.3v1.8c-.4-.5,0-.9,0-1.4-.4-.5,0-.5,0-.5ZM155.5,176.8h.4s.4.5.9.5.4,0,.9.5c0,.9-1.3.5-1.7.9h-1.7c-.4-.5-.9-.9-.9-1.4.4,0,.9-1.4,1.3-.5h.9ZM171.7,176.3c.4.5,0,.5,0,.9v-.9ZM158.6,177.2v.9s0,.5,0,0-.4-.9-.9-1.4c0-.5.4,0,.4,0,.4,0,.4.5.4.5ZM168.2,176.8c0,.5-.4.9-.4,1.4,0,0-.4,0-.4.5v-.5c0-.5.4-.9.4-1.4,0,0,0-.5.4,0ZM169.9,177.7c-.4,0,0,.5-.4.5v-.5s-.4,0,0-.5v-.5h.9l-.4.9ZM159,177.2c-.4,0,0,.5-.4.5v-.9s0,.5.4.5ZM171.7,178.1h-.4c.4-.5-.4-.9.4-1.4v1.4ZM158.1,177.7v.5h-.4c.4-.5,0-.9-.4-1.4.4.5.9.5.9.9h0ZM170.8,178.1v-.9c.4.5,0,.5,0,.9ZM159.5,178.1h-.4v-.5h.4v.5ZM172.1,178.1v.5-.5ZM171.7,178.6v-.5.5ZM171.3,178.6q0-.5,0,0ZM153.3,178.6v.5c-.4,0-.4-.5-.4-.5,0,0,.4-.5.4,0ZM159,178.6s0,.5-.4.5q0-.5.4-.5ZM153.8,179.1c-.4-.5,0-.5,0-.5v.5ZM154.2,178.6c.4,0,0,.5,0,.5v-.5ZM154.7,178.6v.5c0-.5,0-.9,0-.5ZM155.5,178.6v.5h-.4q0-.5.4-.5ZM156,178.6c.4,0,0,.5,0,.5v-.5ZM156.8,179.1h-.4v-.5h.4v.5ZM157.3,178.6v.5h-.4q0-.5.4-.5ZM157.7,178.6c.4,0,0,.5,0,.5v-.5ZM159.5,179.1h-.4l.4-.5c.4,0,0,.5,0,.5ZM168.6,179.1s-.9-.5-.4-.5c0,0,.4,0,.4.5ZM169.5,179.1h-.4l-.4-.5q.4,0,.9.5ZM170.4,179.1c-.4,0-.4-.5-.4-.5,0,0,.4,0,.4.5ZM170.4,178.6v.5-.5s.4,0,0,0ZM158.6,178.6s0,.5-.4.5c0,0,0-.5.4-.5ZM160.3,178.6v.5h-.4c0-.5.4-.5.4-.5ZM167.3,179.1c0,.5-.4,0-.4-.5.4,0,.4.5.4.5ZM168.2,179.1c-.4.5-.4,0-.9-.5q.4,0,.9.5ZM169.9,179.1c-.4,0-.4-.5-.4-.5l.4.5ZM164.7,179.1c-.4.5-.4,0-.4-.5,0,0,.4,0,.4.5ZM166,179.1s-.4.5-.4,0v-.5c.4,0,.4.5.4.5ZM166.9,179.1c-.4.5-.4,0-.9-.5q.4,0,.9.5ZM160.8,179.1s0,.5,0,0c-.4,0,0,0,0,0,0-.5,0,0,0,0ZM165.1,179.1v-.5.5ZM164.3,179.1h-.4v-.5l.4.5ZM161.6,179.1s-.4.5-.4,0h.4ZM163.8,179.1c-.4,0-.4.5-.4,0,.4-.5,0,0,.4,0ZM163,179.1s0,.5-.4,0h.4ZM162.5,179.1c-.4,0,0,.5-.4,0h.4ZM157.3,179.5c0-.5.4,0,.4,0,0,.5-.4,0-.9,0h-.4.9ZM168.6,179.5h-.4.4ZM169.5,179.5h-.4.4ZM156.4,179.5h-.4.4ZM158.6,179.5s0,.5-.4.5v-.5h.4ZM158.6,179.5c.4,0,0,.5,0,.5v-.5ZM159.5,180h-.4v-.5h.4v.5ZM160.3,180h-.4c-.4-.5,0-.5,0-.5,0,0,.4,0,.4.5ZM167.3,179.5v.5s0-.5-.4-.5h.4ZM168.2,179.5h-.4.4ZM160.8,179.5v.5h-.4v-.5h.4ZM161.6,179.5q0,.5-.4.5v-.5h.4ZM162.1,180h-.4c0-.5.4-.5.4,0ZM163,179.5c0,.5-.4.5-.4.5,0-.5.4-.5.4-.5ZM163.8,179.5c0,.5-.4.5-.4.5h-.4v-.5h.9ZM164.3,179.5v.5h-.4c0-.5.4-.5.4-.5ZM165.1,179.5c.4.5,0,.5-.4.5v-.5h.4ZM166,179.5q0,.5-.4.5v-.5h.4ZM166.9,179.5v.5h-.4v-.5h.4ZM167.8,180v.5h-.4q0-.5.4-.5ZM158.1,180.4h-.4v-.5c.4,0,0,.5.4.5ZM167.3,180c0,.5-.4.5-.4.5-.4-.5.4-.5.4-.5ZM169.1,180q0,.5-.4.5v-.5h.4ZM169.9,180.4h-.4v-.5q.4,0,.4.5ZM156.4,180.9q-.4-.5-.4-.9h.4v.9ZM157.3,180.4h-.4v-.5c.4,0,.4.5.4.5ZM158.6,180.4s-.4-.5,0-.5v.5ZM159,180.4c-.4.5-.4,0-.4,0,0-.5.4-.5.4,0ZM159.9,180v.5c-.4.5-.4,0-.4,0v-.5h.4ZM166.5,180.4h-.4v-.5h.4v.5ZM160.8,180.4h-.4v-.5s.4,0,.4.5ZM161.6,180q0,.5-.4.5c-.4-.5,0-.5.4-.5ZM162.1,180.4q-.4,0-.4-.5.4,0,.4.5ZM163,180.4h-.4q0-.5.4,0ZM163.4,180.4h-.4v-.5q.4,0,.4.5ZM164.3,180.4h-.4c0-.5.4-.5.4,0ZM164.7,180.4v-.5.5ZM165.6,180.4h-.4v-.5q.4,0,.4.5ZM155.5,180.4q-.4,0-.4-.5c.4,0,.4.5.4.5Z"/>
</svg>